<?xml version="1.0" standalone="no"?>
<!DOCTYPE svg PUBLIC "-//W3C//DTD SVG 20010904//EN"
 "http://www.w3.org/TR/2001/REC-SVG-20010904/DTD/svg10.dtd">
<svg version="1.0" xmlns="http://www.w3.org/2000/svg"
 width="510.000000pt" height="510.000000pt" viewBox="0 0 510.000000 510.000000"
 preserveAspectRatio="xMidYMid meet">
<metadata>
Created by potrace 1.14, written by Peter Selinger 2001-2017
</metadata>
<g transform="translate(0.000000,510.000000) scale(0.100000,-0.100000)"
fill="#000000" stroke="none">
<path d="M0 2550 l0 -2550 2550 0 2550 0 0 2550 0 2550 -2550 0 -2550 0 0
-2550z m2959 1255 c90 -27 154 -103 167 -198 13 -93 -49 -169 -201 -247 -95
-50 -138 -51 -296 -11 -178 46 -252 56 -419 56 -214 0 -342 -31 -535 -127
-156 -79 -264 -76 -348 10 -73 75 -68 128 22 249 109 146 212 222 347 257 91
23 85 23 665 24 465 2 553 0 598 -13z m-394 -530 c68 -19 106 -37 153 -72 l32
-24 0 -634 0 -634 -27 -19 c-82 -56 -222 -83 -469 -89 -253 -7 -456 16 -546
63 l-28 15 0 623 0 624 35 31 c66 57 188 109 313 131 83 15 469 4 537 -15z
m520 -436 c46 -22 61 -24 190 -24 77 1 241 8 365 18 406 30 513 32 565 13 139
-54 155 -257 25 -324 l-45 -24 -510 6 -510 6 -69 -25 c-39 -13 -71 -23 -72
-22 -2 1 13 26 31 56 71 112 65 207 -18 325 -11 16 -16 27 -11 24 5 -2 32 -15
59 -29z m-134 -35 c50 -29 71 -76 67 -151 -6 -95 -49 -141 -168 -182 l-60 -20
0 204 0 204 64 -18 c35 -10 78 -26 97 -37z m74 -963 c79 -36 132 -122 114
-184 -23 -82 -199 -267 -299 -316 -114 -55 -185 -64 -430 -56 -118 4 -309 9
-425 11 -115 2 -279 8 -364 13 -135 9 -161 13 -208 37 -90 44 -146 159 -122
250 15 54 90 123 184 170 103 51 161 55 277 20 176 -54 298 -77 444 -83 215
-9 363 20 549 107 107 50 101 48 175 49 43 0 78 -6 105 -18z"/>
</g>
</svg>
